<svg width="28" height="28" viewBox="0 0 28 28" fill="none" xmlns="http://www.w3.org/2000/svg">
<g clip-path="url(#clip0)">
<path d="M27.4837 17.125C27.4837 14.0833 25.0091 11.6087 21.9674 11.6087C20.3451 11.6087 18.8842 12.3127 17.874 13.4312C17.2857 13.1305 16.6753 12.8802 16.0497 12.6824C17.8999 11.5073 19.1304 9.44005 19.1304 7.09058C19.1304 3.44051 16.1609 0.471008 12.5108 0.471008C8.86078 0.471008 5.89128 3.44051 5.89128 7.09058C5.89128 9.43495 7.11637 11.4984 8.95992 12.6748C7.16512 13.2375 5.52047 14.2282 4.15238 15.5962C1.91974 17.8288 0.690186 20.7972 0.690186 23.9547V26.5815C0.690186 27.0167 1.04302 27.3696 1.47823 27.3696H23.5435C23.9787 27.3696 24.3315 27.0167 24.3315 26.5815V23.9547C24.3315 23.3623 24.285 22.765 24.1942 22.1713C26.1298 21.3139 27.4837 19.3747 27.4837 17.125ZM7.46736 7.09058C7.46736 4.30957 9.72984 2.0471 12.5108 2.0471C15.2919 2.0471 17.5543 4.30957 17.5543 7.09058C17.5543 9.87158 15.2919 12.1341 12.5108 12.1341C9.72984 12.1341 7.46736 9.87158 7.46736 7.09058ZM22.7554 23.9547V25.7935H2.26627V23.9547C2.26627 18.3059 6.86199 13.7101 12.5108 13.7101C14.0591 13.7101 15.5918 14.069 16.9885 14.7514C16.6441 15.4707 16.4511 16.2757 16.4511 17.125C16.4511 20.1667 18.9257 22.6413 21.9674 22.6413C22.2032 22.6413 22.4355 22.6264 22.6636 22.5975C22.7244 23.0502 22.7554 23.5043 22.7554 23.9547ZM23.1074 20.8964C23.0878 20.9014 23.0684 20.9066 23.0495 20.9129C22.7054 21.0114 22.3426 21.0652 21.9674 21.0652C19.7947 21.0652 18.0272 19.2976 18.0272 17.125C18.0272 14.9524 19.7947 13.1848 21.9674 13.1848C24.14 13.1848 25.9076 14.9524 25.9076 17.125C25.9076 18.9013 24.7258 20.4063 23.1074 20.8964Z" fill="white"/>
<path d="M23.5442 16.337H22.7562V15.5489C22.7562 15.1137 22.4033 14.7609 21.9681 14.7609C21.5329 14.7609 21.1801 15.1137 21.1801 15.5489V16.337H20.392C19.9568 16.337 19.604 16.6898 19.604 17.125C19.604 17.5602 19.9568 17.913 20.392 17.913H21.1801V18.7011C21.1801 19.1363 21.5329 19.4891 21.9681 19.4891C22.4033 19.4891 22.7562 19.1363 22.7562 18.7011V17.913H23.5442C23.9794 17.913 24.3323 17.5602 24.3323 17.125C24.3323 16.6898 23.9794 16.337 23.5442 16.337Z" fill="white"/>
</g>
<defs>
<clipPath id="clip0">
<rect width="26.8986" height="26.8986" fill="white" transform="translate(0.638428 0.471008)"/>
</clipPath>
</defs>
</svg>
