<svg width="20" height="19" viewBox="0 0 20 19" fill="none" xmlns="http://www.w3.org/2000/svg">
<path d="M18.4267 8.09517L1.42674 0.095167C1.25556 0.0146173 1.06503 -0.0157201 0.877299 0.00767786C0.689563 0.0310758 0.512316 0.107249 0.36614 0.227352C0.219964 0.347455 0.110857 0.50656 0.0514882 0.686191C-0.00788074 0.865822 -0.0150756 1.05861 0.0307394 1.24217L1.24274 6.09117L9.00074 9.00017L1.24274 11.9092L0.0307394 16.7582C-0.0159376 16.9419 -0.00934325 17.135 0.0497511 17.3151C0.108845 17.4952 0.217996 17.6547 0.364436 17.7751C0.510875 17.8954 0.688549 17.9715 0.876672 17.9946C1.0648 18.0176 1.25559 17.9866 1.42674 17.9052L18.4267 9.90517C18.5985 9.82441 18.7438 9.69642 18.8455 9.53617C18.9473 9.37591 19.0013 9.19 19.0013 9.00017C19.0013 8.81034 18.9473 8.62443 18.8455 8.46417C18.7438 8.30391 18.5985 8.17592 18.4267 8.09517Z" fill="white"/>
</svg>
