<svg width="25" height="25" viewBox="0 0 25 25" fill="none" xmlns="http://www.w3.org/2000/svg">
<g clip-path="url(#clip0)">
<path d="M14.7094 11.0715C15.9298 12.292 15.9298 14.2707 14.7094 15.4911C13.489 16.7115 11.5103 16.7115 10.2898 15.4911C9.0694 14.2707 9.0694 12.292 10.2898 11.0715C11.5103 9.85111 13.489 9.85111 14.7094 11.0715Z" fill="#AF67E7"/>
<path d="M21.8749 4.68733H19.7157L18.1524 1.56223H6.84608L5.28426 4.68887L3.12813 4.69271C1.40919 4.69578 0.00987809 6.09657 0.00839381 7.81628L0 20.3121C0 22.0356 1.40156 23.4379 3.12511 23.4379H21.8749C23.5985 23.4379 25.0001 22.0364 25.0001 20.3128V7.81239C25 6.0889 23.5984 4.68733 21.8749 4.68733ZM12.4996 19.5315C9.05329 19.5315 6.2494 16.7276 6.2494 13.2813C6.2494 9.83499 9.05329 7.0311 12.4996 7.0311C15.9459 7.0311 18.7498 9.83499 18.7498 13.2813C18.7498 16.7276 15.9459 19.5315 12.4996 19.5315Z" fill="#AF67E7"/>
</g>
<defs>
<clipPath id="clip0">
<rect width="25" height="25" fill="white"/>
</clipPath>
</defs>
</svg>
