<svg width="24" height="23" viewBox="0 0 24 23" fill="none" xmlns="http://www.w3.org/2000/svg">
<path d="M21.257 10.5491C21.731 11.134 21.731 11.9236 21.257 12.5076C19.764 14.3463 16.182 18.1321 12 18.1321C7.81801 18.1321 4.23601 14.3463 2.74301 12.5076C2.51239 12.2275 2.38721 11.883 2.38721 11.5283C2.38721 11.1737 2.51239 10.8292 2.74301 10.5491C4.23601 8.71041 7.81801 4.92456 12 4.92456C16.182 4.92456 19.764 8.71041 21.257 10.5491V10.5491Z" stroke="#781EBE" stroke-width="2" stroke-linecap="round" stroke-linejoin="round"/>
<path d="M12 14.3585C13.6569 14.3585 15 13.0914 15 11.5283C15 9.96524 13.6569 8.69812 12 8.69812C10.3431 8.69812 9 9.96524 9 11.5283C9 13.0914 10.3431 14.3585 12 14.3585Z" stroke="#781EBE" stroke-width="2" stroke-linecap="round" stroke-linejoin="round"/>
</svg>
