<svg xmlns="http://www.w3.org/2000/svg" viewBox="0 0 273 305"><defs><style>.cls-1{fill:#fff;}</style></defs><title>Artboard 2pruu_ico</title><g id="Pruu"><g id="Pruu-2" data-name="Pruu"><path class="cls-1" d="M227.9,107.13c-3.7-24.81-16.39-35.71-36.51-40.28a67.29,67.29,0,0,0-13.93-1.58c-16-.25-49.77-.5-68.11-.1a37.64,37.64,0,0,0-13.73,2.9C80.18,74.56,65,85.66,45.23,107.44a2.07,2.07,0,0,0,1.23,3.45l25,3.55a7.34,7.34,0,0,1,6.3,7.25V263.24a12.05,12.05,0,0,0,12.05,12H216.27a12.05,12.05,0,0,0,12-12V113A40.21,40.21,0,0,0,227.9,107.13Zm-34.72,23.2a10,10,0,0,1,17.13-7.06,9.9,9.9,0,0,1,2.95,7.06v50a10,10,0,0,1-20.08,0ZM153,208.25a9.89,9.89,0,0,1,1.75-5.67,41.38,41.38,0,0,1,10.49-10.5,10.3,10.3,0,0,1,5.9-1.79h21a14.67,14.67,0,0,1,10.34,4.27L211,203a7.68,7.68,0,0,1,2.27,5.46v5.45a1.34,1.34,0,0,1-1.34,1.34H175.07a2,2,0,0,0-2,2,3,3,0,0,0,3,3h13.89a1.94,1.94,0,0,1,1.74,2.81,45.83,45.83,0,0,1-6.61,10.18,6.07,6.07,0,0,1-4.47,2h-9.86a7.85,7.85,0,0,1-5-1.81,84.63,84.63,0,0,1-9.58-9.37,12.89,12.89,0,0,1-3.22-8.53Zm-30.12-77.92A10,10,0,0,1,140,123.27a9.9,9.9,0,0,1,3,7.06v50a10,10,0,0,1-20.08,0ZM223.17,260a9.86,9.86,0,0,1-9.84,8.21H95a9.89,9.89,0,0,1-10-9.44,11.63,11.63,0,0,1,0-1.32,9.93,9.93,0,0,1,10-9.24H213.33a9.85,9.85,0,0,1,9.84,8.23,12.25,12.25,0,0,1,0,3.56Z"/><path class="cls-1" d="M50.14,43.18c10.92-8.59,67.41-31.65,77.65,14.41a1.6,1.6,0,0,1-2,1.87c-30.21-9.13-39.08-11.22-75-14A1.26,1.26,0,0,1,50.14,43.18Z"/><path class="cls-1" d="M72.22,123.56c1.33,12.87-16.71,15.95-24.56,16.68a1.91,1.91,0,0,1-1.86-2.82l9.6-17.37a2.34,2.34,0,0,1,2.48-1.18l12,2.19A2.82,2.82,0,0,1,72.22,123.56Z"/></g></g></svg>