<svg xmlns="http://www.w3.org/2000/svg" viewBox="0 0 987 305"><defs><style>.cls-1{font-size:136.9px;font-family:Poppins-Medium, Poppins;}.cls-1,.cls-2{fill:#fff;}</style></defs><title>PruuLogo</title><g id="PruuWithText"><text class="cls-1" transform="translate(270.29 273.44)">PruuChat</text><g id="Pruu-2" data-name="Pruu"><path class="cls-2" d="M249.82,107.24c-3.7-24.8-16.39-35.71-36.51-40.27a67.29,67.29,0,0,0-13.93-1.58c-16-.25-49.77-.5-68.11-.1a37.64,37.64,0,0,0-13.73,2.9c-15.44,6.48-30.61,17.59-50.39,39.37A2.07,2.07,0,0,0,68.38,111l25,3.55a7.33,7.33,0,0,1,6.3,7.24V263.36a12.06,12.06,0,0,0,12,12H238.19a12.06,12.06,0,0,0,12.05-12V113.16A40.44,40.44,0,0,0,249.82,107.24ZM215.1,130.45a10,10,0,0,1,17.13-7.06,9.9,9.9,0,0,1,3,7.06v50a10,10,0,0,1-20.08,0ZM175,208.36a9.86,9.86,0,0,1,1.75-5.66,41.42,41.42,0,0,1,10.49-10.51,10.29,10.29,0,0,1,5.9-1.78h21a14.66,14.66,0,0,1,10.34,4.26l8.5,8.47a7.66,7.66,0,0,1,2.27,5.45v5.46a1.34,1.34,0,0,1-1.35,1.34H197a2,2,0,0,0-2,2,3,3,0,0,0,3.05,3H212a1.94,1.94,0,0,1,1.74,2.81,45.67,45.67,0,0,1-6.61,10.19,6.06,6.06,0,0,1-4.47,2h-9.86a7.84,7.84,0,0,1-5-1.8,83.84,83.84,0,0,1-9.58-9.38,12.86,12.86,0,0,1-3.22-8.52Zm-30.12-77.91A10,10,0,0,1,162,123.39a9.9,9.9,0,0,1,2.95,7.06v50a10,10,0,0,1-20.08,0ZM245.09,260.13a9.86,9.86,0,0,1-9.84,8.22H116.93a9.9,9.9,0,0,1-10-9.44c0-.44,0-.88,0-1.32a10,10,0,0,1,10-9.24H235.25a9.85,9.85,0,0,1,9.84,8.23,12.63,12.63,0,0,1,.13,1.78A12.48,12.48,0,0,1,245.09,260.13Z"/><path class="cls-2" d="M72.06,43.29C83,34.71,139.47,11.64,149.71,57.7a1.6,1.6,0,0,1-2,1.88c-30.21-9.13-39.08-11.22-75-14A1.26,1.26,0,0,1,72.06,43.29Z"/><path class="cls-2" d="M94.13,123.68c1.34,12.86-16.7,15.95-24.55,16.68a1.91,1.91,0,0,1-1.86-2.83l9.6-17.37A2.35,2.35,0,0,1,79.8,119l12,2.19A2.82,2.82,0,0,1,94.13,123.68Z"/></g></g></svg>