<svg width="24" height="23" viewBox="0 0 24 23" fill="none" xmlns="http://www.w3.org/2000/svg">
<path d="M12 11.5282C14.7614 11.5282 17 9.41634 17 6.81122C17 4.2061 14.7614 2.09424 12 2.09424C9.23858 2.09424 7 4.2061 7 6.81122C7 9.41634 9.23858 11.5282 12 11.5282Z" stroke="#781EBE" stroke-width="2"/>
<path d="M17.0001 13.415H17.3521C18.0831 13.4152 18.789 13.6673 19.337 14.1238C19.885 14.5803 20.2374 15.2099 20.3281 15.8943L20.7191 18.8415C20.7542 19.107 20.7291 19.3765 20.6455 19.6321C20.5618 19.8878 20.4214 20.1237 20.2337 20.3243C20.046 20.5248 19.8152 20.6854 19.5566 20.7954C19.2981 20.9054 19.0177 20.9623 18.7341 20.9622H5.26606C4.98244 20.9623 4.70206 20.9054 4.44351 20.7954C4.18496 20.6854 3.95416 20.5248 3.76644 20.3243C3.57871 20.1237 3.43835 19.8878 3.35467 19.6321C3.27098 19.3765 3.24589 19.107 3.28106 18.8415L3.67106 15.8943C3.76176 15.2096 4.11448 14.5797 4.66289 14.1232C5.21131 13.6666 5.91764 13.4148 6.64906 13.415H7.00006" stroke="#781EBE" stroke-width="2" stroke-linecap="round" stroke-linejoin="round"/>
</svg>
